<?xml version="1.0" encoding="utf-8"?><svg xmlns="http://www.w3.org/2000/svg" xmlns:xlink="http://www.w3.org/1999/xlink" width="1536" height="760" preserveAspectRatio="xMidYMid" viewBox="0 0 1536 760" style="z-index:1;margin-right:-1.6px;display:block;background-repeat-y:initial;background-repeat-x:initial;background-color:rgb(45, 38, 114);animation-play-state:paused" ><g transform="translate(768,380) scale(1,1) translate(-768,-380)" style="transform:matrix(1, 0, 0, 1, 0, 0);animation-play-state:paused" ><defs style="animation-play-state:paused" ><filter id="blur-lk0n67os2-1" x="-1" y="-1" width="3" height="3" style="animation-play-state:paused" ><feGaussianBlur stdDeviation="3" style="animation-play-state:paused" ></feGaussianBlur></filter>
<filter id="blur-lk0n67os2-2" x="-1" y="-1" width="3" height="3" style="animation-play-state:paused" ><feGaussianBlur stdDeviation="1.5" style="animation-play-state:paused" ></feGaussianBlur></filter>
<filter id="blur-lk0n67os2-3" x="-1" y="-1" width="3" height="3" style="animation-play-state:paused" ><feGaussianBlur stdDeviation="1" style="animation-play-state:paused" ></feGaussianBlur></filter></defs>
<circle cx="317.4399057629736" cy="0" transform="matrix(1,0,0,1,0,320.8127746582031)" r="11.684183765503702" fill="#bbddff" opacity="0.63" style="transform:matrix(1, 0, 0, 1, 0, 320.813);opacity:0.63;animation-play-state:paused" ></circle>
<circle cx="172.16697076474986" cy="0" transform="matrix(1,0,0,1,0,259.7113037109375)" r="13.923358780440452" fill="#bbddff" opacity="0.7200000000000001" style="transform:matrix(1, 0, 0, 1, 0, 259.711);opacity:0.72;animation-play-state:paused" ></circle>
<circle cx="512.334578428666" cy="0" transform="matrix(1,0,0,1,0,66.8187255859375)" r="13.9502390807408" fill="#ddeeff" opacity="0.7200000000000001" style="transform:matrix(1, 0, 0, 1, 0, 66.8187);opacity:0.72;animation-play-state:paused" ></circle>
<circle cx="689.4561699092325" cy="0" transform="matrix(1,0,0,1,0,721.855224609375)" r="7.090437738632099" fill="#ddeeff" opacity="0.36000000000000004" style="transform:matrix(1, 0, 0, 1, 0, 721.855);opacity:0.36;animation-play-state:paused" ></circle>
<circle cx="1212.4832400597609" cy="0" transform="matrix(1,0,0,1,0,43.550048828125)" r="9.209478390627524" fill="#aabbcc" opacity="0.63" style="transform:matrix(1, 0, 0, 1, 0, 43.55);opacity:0.63;animation-play-state:paused" ></circle>
<circle cx="11.084527726224565" cy="0" transform="matrix(1,0,0,1,0,658.3572998046875)" r="5.132996762406993" fill="#ddeeff" opacity="0.36000000000000004" style="transform:matrix(1, 0, 0, 1, 0, 658.357);opacity:0.36;animation-play-state:paused" ></circle>
<circle cx="690.5895477772206" cy="0" transform="matrix(1,0,0,1,0,322.48931884765625)" r="9.756100007745035" fill="#aabbcc" opacity="0.63" style="transform:matrix(1, 0, 0, 1, 0, 322.489);opacity:0.63;animation-play-state:paused" ></circle>
<circle cx="530.6149027864708" cy="0" transform="matrix(1,0,0,1,0,133.2132568359375)" r="4.251604083021556" fill="#aabbcc" opacity="0.36000000000000004" style="transform:matrix(1, 0, 0, 1, 0, 133.213);opacity:0.36;animation-play-state:paused" ></circle>
<circle cx="819.8117920903676" cy="0" transform="matrix(1,0,0,1,0,257.9910583496094)" r="6.59037027236451" fill="#ddeeff" opacity="0.36000000000000004" style="transform:matrix(1, 0, 0, 1, 0, 257.991);opacity:0.36;animation-play-state:paused" ></circle>
<circle cx="727.2562805136826" cy="0" transform="matrix(1,0,0,1,0,415.7026062011719)" r="10.425597528273297" fill="#ddeeff" opacity="0.63" style="transform:matrix(1, 0, 0, 1, 0, 415.703);opacity:0.63;animation-play-state:paused" ></circle>
<circle cx="740.0984524041406" cy="0" transform="matrix(1,0,0,1,0,767.338623046875)" r="9.768493956340912" fill="#ddeeff" opacity="0.63" style="transform:matrix(1, 0, 0, 1, 0, 767.339);opacity:0.63;animation-play-state:paused" ></circle>
<circle cx="641.2288763270379" cy="0" transform="matrix(1,0,0,1,0,29.32257080078125)" r="7.534420348895322" fill="#bbddff" opacity="0.36000000000000004" style="transform:matrix(1, 0, 0, 1, 0, 29.3226);opacity:0.36;animation-play-state:paused" ></circle>
<circle cx="211.13578323859235" cy="0" transform="matrix(1,0,0,1,0,98.1485595703125)" r="12.584754940775648" fill="#bbddff" opacity="0.7200000000000001" style="transform:matrix(1, 0, 0, 1, 0, 98.1486);opacity:0.72;animation-play-state:paused" ></circle>
<circle cx="601.1662079581563" cy="0" transform="matrix(1,0,0,1,0,128.08233642578125)" r="10.53557809556014" fill="#bbddff" opacity="0.63" style="transform:matrix(1, 0, 0, 1, 0, 128.082);opacity:0.63;animation-play-state:paused" ></circle>
<circle cx="1209.351216648433" cy="0" transform="matrix(1,0,0,1,0,726.2845458984375)" r="13.159765908945232" fill="#aabbcc" opacity="0.7200000000000001" style="transform:matrix(1, 0, 0, 1, 0, 726.285);opacity:0.72;animation-play-state:paused" ></circle></g></svg>